<svg width="107" height="128" viewBox="0 0 107 128" fill="none" xmlns="http://www.w3.org/2000/svg">
<path d="M2.00906 79.3464L3.39261 65.5843C3.39905 65.5203 3.41171 65.457 3.4304 65.3955L8.14759 49.8655C8.16279 49.8154 8.18194 49.7667 8.20485 49.7197L16.2594 33.193L24.3483 16.5957L32.4553 2.49409C32.7136 2.0448 33.276 1.87018 33.7486 2.09254L45.2502 7.50359L64.8261 20.0368L84.3356 32.5276C84.3797 32.5558 84.4216 32.5874 84.4608 32.6221L93.7837 40.877C93.8569 40.9418 93.9203 41.0168 93.9718 41.0997L101.118 52.5957C101.168 52.6765 101.206 52.7639 101.232 52.8554L104.598 64.9047C104.624 64.9992 104.637 65.0969 104.634 65.1947L104.356 77.9449C104.35 78.2275 104.224 78.4934 104.009 78.6766L87.3356 92.8833C87.1422 93.048 86.8925 93.1326 86.6374 93.1198L68.4873 92.2048C67.8066 92.1704 67.2953 92.808 67.4782 93.4629L69.8701 102.025C69.9271 102.229 70.0478 102.41 70.2147 102.543L85.6128 114.744C86.2565 115.255 86.0511 116.273 85.2612 116.487L80.5203 117.771L58.9351 123.618L51.3467 125.674C50.6335 125.867 49.9585 125.249 50.0921 124.524L51.5784 116.465L54.1469 106.753C54.1716 106.659 54.1825 106.563 54.1793 106.466L53.8963 97.9153C53.868 97.0609 52.845 96.6281 52.2147 97.204L44.042 104.672C43.9251 104.779 43.7842 104.856 43.6309 104.897L29.2432 108.795C29.0338 108.852 28.8111 108.839 28.6087 108.758L14.149 103.019C13.9573 102.943 13.7934 102.81 13.6796 102.638L7.73865 93.6816C7.70171 93.6259 7.67042 93.5667 7.64527 93.5049L2.0778 79.8219C2.01642 79.671 1.99283 79.5078 2.00906 79.3464Z" stroke="#AEE4ED" stroke-width="4" stroke-linejoin="bevel"/>
</svg>
